<svg width="48" height="46" viewBox="0 0 48 46" fill="none" xmlns="http://www.w3.org/2000/svg">
<rect width="47.0281" height="46" rx="23" fill="white"/>
<path d="M28.487 15.9372C28.4801 15.9326 28.4761 15.9257 28.4689 15.9216C28.4615 15.9174 28.4532 15.9175 28.4457 15.9139C26.9922 15.0943 25.3088 14.6227 23.514 14.6227C21.7197 14.6227 20.0369 15.094 18.5837 15.9131C18.5763 15.9166 18.5681 15.9165 18.5609 15.9206C18.5537 15.9247 18.5498 15.9316 18.543 15.936C15.5941 17.6165 13.6064 20.741 13.606 24.3132C13.606 24.3132 13.606 24.3133 13.606 24.3133C13.606 24.3133 13.606 24.3134 13.606 24.3134C13.606 24.3137 13.606 24.314 13.606 24.3143C13.606 27.8861 15.5929 31.0104 18.541 32.6914C18.5478 32.6959 18.5518 32.7029 18.5591 32.707C18.5699 32.7131 18.5817 32.7158 18.5929 32.7206C20.044 33.5365 21.7235 34.0058 23.514 34.0058C25.3039 34.0058 26.9828 33.5368 28.4336 32.7214C28.4447 32.7166 28.4563 32.714 28.4671 32.7079C28.4742 32.7039 28.4782 32.697 28.4849 32.6925C31.4338 31.012 33.4215 27.8875 33.422 24.3154C33.422 24.3153 33.422 24.3153 33.422 24.3152C33.422 24.3152 33.422 24.3152 33.422 24.3151C33.422 24.3149 33.422 24.3146 33.422 24.3143C33.422 20.7425 31.435 17.6181 28.487 15.9372ZM32.7417 23.9866L24.0959 23.9858L28.4185 16.6642C30.9292 18.2099 32.6285 20.9032 32.7417 23.9866ZM27.8375 16.334L23.5141 23.657L19.1922 16.3332C20.4827 15.6619 21.9533 15.2798 23.514 15.2798C25.0753 15.2798 26.5466 15.6622 27.8375 16.334ZM18.6111 16.6632L22.9321 23.9856L14.2863 23.9848C14.4001 20.9015 16.1 18.2084 18.6111 16.6632ZM14.2863 24.6419L22.932 24.6428L18.6095 31.9643C16.0987 30.4186 14.3994 27.7253 14.2863 24.6419ZM19.1905 32.2945L23.5139 24.9715L27.8357 32.2954C26.5453 32.9667 25.0746 33.3487 23.514 33.3487C21.9526 33.3487 20.4813 32.9664 19.1905 32.2945ZM28.4168 31.9653L24.0958 24.6429L32.7416 24.6438C32.6278 27.727 30.928 30.4202 28.4168 31.9653Z" fill="#0B3226"/>
<path d="M23.514 11.1714C16.105 11.1714 10.0774 17.0674 10.0774 24.3143C10.0774 31.5612 16.105 37.4571 23.514 37.4571C30.923 37.4571 36.9506 31.5612 36.9506 24.3143C36.9506 17.0674 30.923 11.1714 23.514 11.1714ZM23.514 36.8C16.4755 36.8 10.7492 31.1989 10.7492 24.3143C10.7492 17.4297 16.4755 11.8286 23.514 11.8286C30.5524 11.8286 36.2787 17.4297 36.2787 24.3143C36.2787 31.1989 30.5524 36.8 23.514 36.8Z" fill="#0B3226"/>
<path d="M23.5139 18.1879C23.6994 18.1879 23.8498 18.0409 23.8498 17.8593V16.958C23.8498 16.7764 23.6994 16.6294 23.5139 16.6294C23.3284 16.6294 23.178 16.7764 23.178 16.958V17.8593C23.178 18.0409 23.3284 18.1879 23.5139 18.1879Z" fill="#0B3226"/>
<path d="M21.2432 17.2936L21.4817 18.1645C21.5219 18.3114 21.6575 18.408 21.806 18.408C21.8347 18.408 21.8639 18.4045 21.8931 18.3968C22.0722 18.3499 22.1786 18.1696 22.1306 17.9944L21.8921 17.1236C21.844 16.9481 21.6603 16.8431 21.4807 16.8913C21.3016 16.9381 21.1952 17.1184 21.2432 17.2936Z" fill="#0B3226"/>
<path d="M18.6103 19.9822C18.6759 20.0464 18.7619 20.0785 18.8478 20.0785C18.9337 20.0785 19.0197 20.0464 19.0853 19.9822C19.2165 19.8539 19.2165 19.6459 19.0853 19.5176L18.4336 18.8803C18.3024 18.752 18.0899 18.752 17.9586 18.8803C17.8274 19.0087 17.8274 19.2166 17.9586 19.345L18.6103 19.9822Z" fill="#0B3226"/>
<path d="M16.833 20.9207L17.6311 21.3716C17.6839 21.4014 17.7418 21.4155 17.7987 21.4155C17.9148 21.4155 18.0277 21.3568 18.09 21.2512C18.1827 21.094 18.1277 20.8931 17.967 20.8023L17.1689 20.3515C17.008 20.2607 16.8028 20.3143 16.7099 20.4718C16.6173 20.6291 16.6722 20.8299 16.833 20.9207Z" fill="#0B3226"/>
<path d="M16.1626 22.7275L17.0529 22.9608C17.0821 22.9685 17.1113 22.972 17.14 22.972C17.2885 22.972 17.4241 22.8751 17.4643 22.7285C17.5123 22.5533 17.4059 22.373 17.2268 22.3261L16.3365 22.0929C16.1557 22.0451 15.973 22.15 15.9251 22.3252C15.8771 22.5004 15.9835 22.6807 16.1626 22.7275Z" fill="#0B3226"/>
<path d="M17.4643 25.9C17.4162 25.7245 17.2329 25.6196 17.0529 25.6677L16.1626 25.901C15.9835 25.9478 15.8771 26.1282 15.9251 26.3034C15.9653 26.4503 16.1009 26.5469 16.2494 26.5469C16.2781 26.5469 16.3073 26.5434 16.3365 26.5357L17.2268 26.3024C17.4059 26.2556 17.5123 26.0752 17.4643 25.9Z" fill="#0B3226"/>
<path d="M18.09 27.3773C17.997 27.2197 17.7915 27.1662 17.6311 27.257L16.833 27.7078C16.6722 27.7986 16.6173 27.9995 16.7099 28.1567C16.7723 28.2622 16.8851 28.321 17.0012 28.321C17.0582 28.321 17.1161 28.3069 17.1689 28.277L17.967 27.8262C18.1277 27.7354 18.1827 27.5345 18.09 27.3773Z" fill="#0B3226"/>
<path d="M19.0853 29.111C19.2165 28.9826 19.2165 28.7747 19.0853 28.6463C18.9541 28.518 18.7415 28.518 18.6103 28.6463L17.9586 29.2836C17.8274 29.4119 17.8274 29.6199 17.9586 29.7482C18.0243 29.8124 18.1102 29.8445 18.1961 29.8445C18.2821 29.8445 18.368 29.8124 18.4336 29.7482L19.0853 29.111Z" fill="#0B3226"/>
<path d="M21.8931 30.2318C21.713 30.184 21.5294 30.2889 21.4817 30.4641L21.2432 31.3349C21.1952 31.5101 21.3016 31.6905 21.4807 31.7373C21.5099 31.745 21.5391 31.7485 21.5678 31.7485C21.7163 31.7485 21.8519 31.6516 21.8921 31.505L22.1306 30.6341C22.1786 30.459 22.0722 30.2786 21.8931 30.2318Z" fill="#0B3226"/>
<path d="M23.5139 30.4407C23.3284 30.4407 23.178 30.5876 23.178 30.7692V31.6706C23.178 31.8522 23.3284 31.9991 23.5139 31.9991C23.6994 31.9991 23.8498 31.8522 23.8498 31.6706V30.7692C23.8498 30.5876 23.6994 30.4407 23.5139 30.4407Z" fill="#0B3226"/>
<path d="M25.7849 31.3349L25.5464 30.4641C25.4983 30.2885 25.3145 30.1839 25.135 30.2318C24.9559 30.2786 24.8495 30.4589 24.8975 30.6341L25.136 31.505C25.1762 31.6519 25.3118 31.7485 25.4603 31.7485C25.489 31.7485 25.5182 31.745 25.5474 31.7373C25.7265 31.6904 25.8329 31.5101 25.7849 31.3349Z" fill="#0B3226"/>
<path d="M28.4177 28.6463C28.2864 28.518 28.0739 28.518 27.9427 28.6463C27.8114 28.7747 27.8114 28.9826 27.9427 29.111L28.5943 29.7482C28.6599 29.8124 28.7459 29.8445 28.8318 29.8445C28.9178 29.8445 29.0037 29.8124 29.0693 29.7482C29.2005 29.6199 29.2005 29.4119 29.0693 29.2836L28.4177 28.6463Z" fill="#0B3226"/>
<path d="M30.1951 27.7078L29.397 27.257C29.2363 27.1662 29.0309 27.2197 28.9381 27.3773C28.8454 27.5345 28.9004 27.7354 29.0611 27.8262L29.8592 28.277C29.912 28.3069 29.9699 28.321 30.0269 28.321C30.143 28.321 30.2558 28.2622 30.3182 28.1567C30.4108 27.9995 30.3559 27.7986 30.1951 27.7078Z" fill="#0B3226"/>
<path d="M30.8655 25.901L29.9752 25.6677C29.7947 25.6196 29.6117 25.7251 29.5638 25.9C29.5157 26.0752 29.6222 26.2555 29.8013 26.3024L30.6916 26.5357C30.7208 26.5434 30.75 26.5469 30.7787 26.5469C30.9271 26.5469 31.0628 26.45 31.103 26.3033C31.151 26.1282 31.0446 25.9478 30.8655 25.901Z" fill="#0B3226"/>
<path d="M29.5638 22.7285C29.604 22.8755 29.7396 22.9721 29.8881 22.9721C29.9168 22.9721 29.946 22.9685 29.9752 22.9608L30.8655 22.7276C31.0446 22.6807 31.151 22.5004 31.103 22.3252C31.0549 22.1497 30.8717 22.0451 30.6916 22.0929L29.8013 22.3262C29.6222 22.373 29.5157 22.5533 29.5638 22.7285Z" fill="#0B3226"/>
<path d="M28.9381 21.2512C29.0004 21.3568 29.1133 21.4155 29.2294 21.4155C29.2863 21.4155 29.3442 21.4014 29.397 21.3716L30.1951 20.9207C30.3559 20.8299 30.4108 20.6291 30.3182 20.4718C30.2253 20.3143 30.0196 20.2607 29.8592 20.3515L29.0611 20.8023C28.9004 20.8931 28.8454 21.094 28.9381 21.2512Z" fill="#0B3226"/>
<path d="M27.9427 19.5176C27.8114 19.6459 27.8114 19.8539 27.9427 19.9822C28.0083 20.0464 28.0942 20.0785 28.1802 20.0785C28.2661 20.0785 28.352 20.0464 28.4177 19.9822L29.0693 19.345C29.2005 19.2166 29.2005 19.0087 29.0693 18.8803C28.9381 18.752 28.7255 18.752 28.5943 18.8803L27.9427 19.5176Z" fill="#0B3226"/>
<path d="M25.135 18.3968C25.1642 18.4045 25.1934 18.408 25.2221 18.408C25.3706 18.408 25.5062 18.3111 25.5464 18.1645L25.7849 17.2936C25.8329 17.1184 25.7265 16.9381 25.5474 16.8913C25.3671 16.8431 25.1839 16.9487 25.136 17.1236L24.8975 17.9944C24.8495 18.1696 24.9559 18.3499 25.135 18.3968Z" fill="#0B3226"/>
</svg>
