<svg width="48" height="46" viewBox="0 0 48 46" fill="none" xmlns="http://www.w3.org/2000/svg">
<rect width="47.0281" height="46" rx="23" fill="white"/>
<path d="M15.4663 19.7598C15.3902 19.7596 15.3173 19.7299 15.2636 19.6772C14.8971 19.3069 14.6211 18.8602 14.4562 18.3707C14.2913 17.8812 14.2418 17.3615 14.3114 16.8507C14.381 16.3398 14.5679 15.851 14.8581 15.4208C15.1483 14.9906 15.5343 14.6302 15.9871 14.3667C16.44 14.1032 16.9479 13.9433 17.4728 13.8991C17.9978 13.8548 18.5262 13.9274 19.0184 14.1113C19.5106 14.2952 19.9539 14.5857 20.3151 14.961C20.6762 15.3363 20.9458 15.7866 21.1037 16.2783C21.115 16.312 21.1193 16.3475 21.1163 16.3827C21.1133 16.418 21.1031 16.4523 21.0863 16.4836C21.0695 16.515 21.0464 16.5427 21.0185 16.5651C20.9905 16.5876 20.9582 16.6043 20.9235 16.6144C20.854 16.6356 20.7789 16.6296 20.7138 16.5978C20.6487 16.5659 20.5987 16.5107 20.5744 16.4436C20.4394 16.0325 20.2113 15.6565 19.9071 15.3436C19.603 15.0306 19.2305 14.7889 18.8176 14.6363C18.4046 14.4837 17.9618 14.4243 17.5221 14.4623C17.0823 14.5004 16.6571 14.635 16.2779 14.8562C15.8988 15.0773 15.5756 15.3793 15.3323 15.7396C15.089 16.0999 14.932 16.5093 14.873 16.9372C14.8139 17.3651 14.8543 17.8005 14.9912 18.211C15.128 18.6215 15.3578 18.9965 15.6635 19.3081C15.6895 19.3328 15.7102 19.3623 15.7244 19.3949C15.7385 19.4276 15.7458 19.4627 15.7458 19.4981C15.7458 19.5336 15.7385 19.5687 15.7244 19.6014C15.7102 19.634 15.6895 19.6635 15.6635 19.6882C15.61 19.7366 15.5391 19.7623 15.4663 19.7598Z" fill="#0B3226"/>
<path d="M16.2435 25.9515C15.3935 25.9485 14.5737 25.6421 13.9381 25.09C13.3024 24.5379 12.8945 23.7779 12.7908 22.9526C12.6872 22.1273 12.8949 21.2934 13.375 20.6072C13.8552 19.921 14.5747 19.4297 15.3988 19.2255C16.1749 19.0387 16.993 19.1172 17.7172 19.4478C18.4415 19.7785 19.0284 20.3415 19.3804 21.0433C19.3963 21.0755 19.4056 21.1105 19.4077 21.1461C19.4098 21.1818 19.4047 21.2176 19.3927 21.2513C19.3806 21.2851 19.3619 21.3162 19.3376 21.3429C19.3133 21.3696 19.2838 21.3913 19.2509 21.4069C19.218 21.4224 19.1823 21.4315 19.1458 21.4336C19.1093 21.4356 19.0728 21.4306 19.0382 21.4188C19.0037 21.4071 18.9719 21.3888 18.9446 21.365C18.9173 21.3412 18.8951 21.3124 18.8792 21.2802C18.6419 20.7942 18.2679 20.3843 17.8012 20.0985C17.3345 19.8127 16.7942 19.6627 16.2435 19.6662C15.7449 19.6642 15.254 19.7864 14.8169 20.0212C14.3798 20.256 14.0109 20.5956 13.745 21.0082C13.4791 21.4208 13.3249 21.8928 13.2968 22.3798C13.2687 22.8668 13.3678 23.3527 13.5846 23.792C13.8014 24.2312 14.1289 24.6092 14.5362 24.8906C14.9435 25.1719 15.4173 25.3473 15.9131 25.4002C16.4088 25.4531 16.9101 25.3818 17.3699 25.193C17.8296 25.0042 18.2328 24.7041 18.5413 24.321C18.5638 24.293 18.5917 24.2698 18.6235 24.2524C18.6552 24.2351 18.6901 24.224 18.7262 24.22C18.7624 24.2159 18.7989 24.2188 18.8339 24.2286C18.8688 24.2383 18.9015 24.2548 18.9299 24.2769C18.9872 24.3214 19.0245 24.386 19.0339 24.4569C19.0434 24.5279 19.0243 24.5996 18.9806 24.657C18.8748 24.7892 18.758 24.9127 18.6314 25.0261C17.9852 25.6211 17.131 25.9521 16.2435 25.9515Z" fill="#0B3226"/>
<path d="M17.6458 31.2894C16.9468 31.2889 16.264 31.0832 15.6858 30.6989C15.1076 30.3146 14.6607 29.7694 14.4028 29.1338C14.145 28.4982 14.0881 27.8016 14.2396 27.1341C14.391 26.4666 14.7438 25.8589 15.2523 25.3897C15.2862 25.358 15.3278 25.3354 15.3731 25.3238C15.4184 25.3123 15.466 25.3122 15.5114 25.3236C15.9915 25.4406 16.4939 25.4385 16.9729 25.3173C17.4519 25.196 17.8923 24.9596 18.2541 24.6295C18.2793 24.604 18.3095 24.5837 18.3428 24.5699C18.3762 24.556 18.4121 24.5489 18.4484 24.5489C18.4846 24.5489 18.5205 24.556 18.5539 24.5699C18.5873 24.5837 18.6175 24.604 18.6427 24.6295C18.6689 24.6546 18.6897 24.6846 18.7039 24.7177C18.7182 24.7508 18.7255 24.7864 18.7255 24.8223C18.7255 24.8582 18.7182 24.8937 18.7039 24.9268C18.6897 24.9599 18.6689 24.9899 18.6427 25.0151C18.2326 25.3894 17.7372 25.6627 17.1975 25.8122C16.6578 25.9616 16.0894 25.983 15.5396 25.8744C15.0094 26.4062 14.7141 27.1203 14.7173 27.863C14.7188 28.6247 15.0292 29.3547 15.5803 29.8928C16.1315 30.4309 16.8784 30.7331 17.6571 30.7331H17.888C18.3154 30.6992 18.73 30.5741 19.1027 30.3667C19.4754 30.1592 19.797 29.8743 20.045 29.5322L20.3153 29.6313L20.0788 29.4991L20.3209 29.6313L20.5518 29.7856L20.4786 29.8847C20.1837 30.2883 19.802 30.6237 19.3602 30.8674C18.9184 31.111 18.4275 31.257 17.9218 31.2949L17.6458 31.2894Z" fill="#0B3226"/>
<path d="M20.518 36.2362H20.4335C19.5281 36.2076 18.6695 35.836 18.039 35.1997C17.4085 34.5635 17.0555 33.7124 17.0545 32.8263C17.051 32.1176 17.2756 31.4257 17.6965 30.8487C17.7404 30.791 17.8056 30.7524 17.8782 30.741C17.9508 30.7297 18.0251 30.7466 18.0851 30.7881C18.1147 30.8084 18.1399 30.8343 18.1592 30.8643C18.1784 30.8942 18.1913 30.9277 18.1971 30.9626C18.2028 30.9976 18.2014 31.0333 18.1928 31.0676C18.1842 31.102 18.1686 31.1343 18.147 31.1627C17.8389 31.5896 17.6555 32.0906 17.6166 32.6118C17.5776 33.1331 17.6847 33.6548 17.9262 34.121C18.1676 34.5871 18.5344 34.9801 18.9871 35.2577C19.4398 35.5353 19.9613 35.6869 20.4955 35.6964C21.0603 35.7016 21.6148 35.5489 22.0938 35.2561C22.5727 34.9633 22.9561 34.5426 23.1987 34.0438C23.2133 34.0111 23.2345 33.9816 23.261 33.9571C23.2875 33.9326 23.3188 33.9136 23.3529 33.9013C23.3871 33.8889 23.4235 33.8835 23.46 33.8852C23.4964 33.887 23.532 33.896 23.5648 33.9115C23.6313 33.9415 23.6828 33.9961 23.7082 34.0632C23.7335 34.1304 23.7306 34.2046 23.7 34.2696C23.4165 34.86 22.9663 35.3589 22.4025 35.7073C21.8388 36.0557 21.1849 36.2393 20.518 36.2362Z" fill="#0B3226"/>
<path d="M23.4635 40.5164C22.5379 40.515 21.6506 40.1547 20.9961 39.5145C20.3416 38.8743 19.9733 38.0064 19.9718 37.1011C19.9712 36.6789 20.0515 36.2604 20.2083 35.8671C20.2217 35.8339 20.2415 35.8035 20.2669 35.7777C20.2922 35.7519 20.3224 35.7313 20.3559 35.717C20.3894 35.7027 20.4254 35.6949 20.4619 35.6942C20.4984 35.6935 20.5348 35.6999 20.5688 35.7129C20.6028 35.7259 20.6339 35.7454 20.6602 35.7701C20.6865 35.7949 20.7076 35.8245 20.7223 35.8572C20.7369 35.89 20.7448 35.9252 20.7455 35.9609C20.7463 35.9966 20.7398 36.0322 20.7265 36.0654C20.5941 36.3953 20.5272 36.7467 20.5293 37.1011C20.5286 37.5416 20.6316 37.9763 20.8302 38.3717C21.0289 38.767 21.3179 39.1123 21.6749 39.3809C22.0319 39.6494 22.4473 39.8339 22.889 39.9202C23.3306 40.0064 23.7866 39.9921 24.2217 39.8782C24.6568 39.7644 25.0592 39.5542 25.3978 39.2637C25.7365 38.9733 26.0022 38.6106 26.1745 38.2036C26.3468 37.7966 26.4209 37.3562 26.3913 36.9167C26.3616 36.4771 26.2289 36.0501 26.0034 35.6688C25.9743 35.6224 25.9587 35.5691 25.9584 35.5146C25.9584 35.4791 25.9655 35.444 25.9794 35.4113C25.9932 35.3785 26.0136 35.3488 26.0392 35.3237C26.0648 35.2986 26.0952 35.2788 26.1287 35.2652C26.1622 35.2516 26.1981 35.2446 26.2343 35.2446C26.2829 35.2444 26.3308 35.2564 26.3732 35.2796C26.4156 35.3027 26.4512 35.3363 26.4765 35.3769C26.7867 35.8957 26.9515 36.4854 26.9541 37.0865C26.9567 37.6875 26.7971 38.2786 26.4915 38.8C26.1858 39.3214 25.7449 39.7547 25.2132 40.0561C24.6815 40.3574 24.078 40.5162 23.4635 40.5164Z" fill="#0B3226"/>
<path d="M26.0821 35.79C25.5155 35.7904 24.9572 35.6557 24.4557 35.3974C23.9543 35.1392 23.5247 34.7654 23.2043 34.3082L23.0748 34.1043C22.7582 33.5805 22.5909 32.9832 22.5905 32.3746C22.591 31.9783 22.6615 31.5851 22.7988 31.2123C22.8308 31.1537 22.8833 31.1085 22.9467 31.0848C23.0101 31.0611 23.0801 31.0606 23.1439 31.0834C23.2076 31.1062 23.2608 31.1507 23.2937 31.2088C23.3265 31.2669 23.3368 31.3347 23.3226 31.3996C23.2047 31.7116 23.1455 32.042 23.148 32.3746C23.149 32.8852 23.2868 33.3867 23.5479 33.8289C23.5873 33.884 23.6211 33.9446 23.6605 34.0052C23.9307 34.3892 24.2924 34.7031 24.7142 34.92C25.1361 35.1369 25.6056 35.2502 26.0821 35.2501H26.2117C26.9692 35.2203 27.6855 34.9047 28.2104 34.3697C28.7353 33.8347 29.0282 33.1217 29.0276 32.3801C29.0309 31.6808 28.7679 31.0052 28.2898 30.4852C28.2513 30.4299 28.2347 30.3628 28.243 30.2965C28.2513 30.2301 28.284 30.169 28.335 30.1245C28.3861 30.08 28.4519 30.0551 28.5202 30.0546C28.5886 30.0541 28.6548 30.0779 28.7066 30.1216C29.1432 30.6033 29.4315 31.1961 29.5381 31.8313C29.6447 32.4666 29.5653 33.1184 29.309 33.7114C29.0527 34.3044 28.6301 34.8142 28.0899 35.1821C27.5498 35.5499 26.9142 35.7607 26.2567 35.79H26.0821Z" fill="#0B3226"/>
<path d="M24.083 25.4227C24.0083 25.4227 23.9367 25.3937 23.8839 25.342C23.8311 25.2904 23.8014 25.2203 23.8014 25.1473C23.8014 25.0742 23.8311 25.0042 23.8839 24.9525C23.9367 24.9009 24.0083 24.8718 24.083 24.8718C24.1567 24.8718 24.2275 24.9001 24.2801 24.9506C24.3328 25.001 24.3631 25.0697 24.3646 25.1418C24.3661 25.1786 24.3599 25.2153 24.3464 25.2498C24.3329 25.2842 24.3123 25.3155 24.2859 25.3418C24.2595 25.3681 24.2279 25.3889 24.193 25.4028C24.1581 25.4167 24.1207 25.4235 24.083 25.4227Z" fill="#0B3226"/>
<path d="M23.1706 31.5759H23.0467C22.4494 31.5494 21.8689 31.3741 21.3603 31.0666C20.8517 30.759 20.4319 30.3294 20.1407 29.8186C20.1217 29.7847 20.1048 29.7498 20.09 29.7139C19.8353 29.2362 19.7038 28.7048 19.7071 28.166C19.6994 27.4938 19.8954 26.8344 20.2702 26.271C20.3114 26.2119 20.3748 26.1712 20.4466 26.1577C20.5184 26.1443 20.5927 26.1593 20.6532 26.1994C20.7136 26.2396 20.7553 26.3017 20.769 26.3719C20.7827 26.4421 20.7674 26.5148 20.7264 26.574C20.4048 27.0452 20.2343 27.5995 20.2365 28.166C20.2347 28.6267 20.3488 29.0807 20.5687 29.4881C20.5833 29.5083 20.5947 29.5306 20.6025 29.5542C20.8502 29.9866 21.2069 30.3498 21.6387 30.6092C22.0704 30.8686 22.5629 31.0155 23.0692 31.036H23.317C23.895 31.0101 24.4521 30.8174 24.9182 30.4821C25.3843 30.1468 25.7384 29.684 25.9358 29.1521V29.0915C26.0387 28.7951 26.092 28.4845 26.0935 28.1715C26.0941 27.4981 25.8506 26.8462 25.4064 26.3316C25.3835 26.3041 25.3663 26.2725 25.3558 26.2385C25.3454 26.2045 25.3419 26.1689 25.3456 26.1336C25.3492 26.0983 25.36 26.064 25.3772 26.0328C25.3944 26.0016 25.4177 25.9739 25.4458 25.9515C25.4732 25.9281 25.5052 25.9102 25.5399 25.8992C25.5745 25.8881 25.611 25.884 25.6473 25.887C25.6836 25.8901 25.7189 25.9004 25.7511 25.9171C25.7832 25.9339 25.8116 25.9568 25.8344 25.9846C26.2221 26.4355 26.4835 26.9771 26.5931 27.5565C26.7027 28.1358 26.6567 28.733 26.4596 29.2898C26.4618 29.3154 26.4618 29.3412 26.4596 29.3669C26.227 29.9984 25.8079 30.5482 25.2555 30.9464C24.703 31.3446 24.042 31.5733 23.3565 31.6034L23.1706 31.5759Z" fill="#0B3226"/>
<path d="M28.6785 30.6009H28.4701C28.0117 30.575 27.5631 30.4605 27.1503 30.2638C26.7375 30.0671 26.3687 29.7922 26.0654 29.4551C26.0391 29.4299 26.0183 29.3999 26.0041 29.3668C25.9899 29.3337 25.9825 29.2982 25.9825 29.2623C25.9825 29.2263 25.9899 29.1908 26.0041 29.1577C26.0183 29.1246 26.0391 29.0946 26.0654 29.0694C26.0924 29.0457 26.1241 29.0274 26.1585 29.0159C26.1929 29.0044 26.2294 28.9998 26.2657 29.0023C26.3019 29.0049 26.3373 29.0146 26.3697 29.0309C26.402 29.0471 26.4307 29.0696 26.454 29.097C26.714 29.3808 27.0292 29.6112 27.3811 29.7748C27.733 29.9384 28.1147 30.032 28.5039 30.05H28.6785C29.2365 30.0515 29.7833 29.8971 30.2546 29.6048C30.7259 29.3126 31.102 28.8948 31.3387 28.4005C31.5754 27.9062 31.6628 27.3561 31.5906 26.8149C31.5184 26.2737 31.2896 25.7639 30.9312 25.3456C30.8841 25.2941 30.858 25.2274 30.858 25.1583C30.858 25.0867 30.8871 25.0181 30.9388 24.9674C30.9906 24.9168 31.0608 24.8884 31.134 24.8884C31.1745 24.8877 31.2147 24.8957 31.2516 24.9119C31.2886 24.9281 31.3215 24.952 31.348 24.982C31.7775 25.4796 32.0526 26.0868 32.141 26.7322C32.2293 27.3776 32.1272 28.0343 31.8466 28.6248C31.5661 29.2153 31.1188 29.7151 30.5575 30.0652C29.9962 30.4153 29.3442 30.6012 28.6785 30.6009Z" fill="#0B3226"/>
<path d="M26.3863 26.3702C26.1305 26.3712 25.8754 26.3435 25.6261 26.2876C25.5537 26.2706 25.4912 26.2263 25.4522 26.1643C25.4131 26.1024 25.4007 26.0279 25.4177 25.957C25.435 25.8877 25.4797 25.828 25.542 25.7908C25.6042 25.7537 25.679 25.7421 25.75 25.7587C26.3307 25.8842 26.9367 25.8351 27.4884 25.6179C28.0401 25.4006 28.5119 25.0254 28.8418 24.5413C28.9546 24.3676 29.0489 24.183 29.1234 23.9905C29.1353 23.9557 29.1543 23.9237 29.1793 23.8964C29.2043 23.8691 29.2347 23.847 29.2687 23.8315C29.3026 23.8161 29.3395 23.8076 29.3769 23.8065C29.4144 23.8054 29.4517 23.8118 29.4865 23.8253C29.5214 23.8388 29.553 23.8591 29.5796 23.8849C29.6062 23.9108 29.6271 23.9416 29.6411 23.9756C29.655 24.0097 29.6618 24.0461 29.6609 24.0827C29.66 24.1194 29.6515 24.1555 29.6359 24.1888C29.5474 24.4077 29.438 24.6179 29.3092 24.8168C28.9926 25.2931 28.5594 25.6846 28.0491 25.9558C27.5387 26.2271 26.9672 26.3695 26.3863 26.3702Z" fill="#0B3226"/>
<path d="M21.6444 26.5244C21.3066 26.5271 20.9704 26.4788 20.6476 26.3812C20.4234 26.3164 20.2064 26.2296 19.9999 26.1223C19.596 25.9089 19.2383 25.6208 18.9468 25.274C18.7735 25.0698 18.626 24.8461 18.5075 24.6074C18.3065 24.1983 18.1908 23.7541 18.1671 23.3007C18.1434 22.8474 18.2122 22.3939 18.3694 21.9668C18.5267 21.5398 18.7693 21.1476 19.083 20.8131C19.3968 20.4786 19.7755 20.2086 20.197 20.0187C20.9167 19.6938 21.728 19.618 22.4976 19.8039C23.2671 19.9899 23.9491 20.4263 24.4314 21.0417C24.9137 21.657 25.1676 22.4145 25.1513 23.1897C25.1351 23.9649 24.8497 24.7116 24.342 25.307C24.0121 25.6921 23.5991 26.0009 23.1327 26.2114C22.6663 26.4219 22.158 26.5288 21.6444 26.5244ZM21.6444 20.2391C21.1468 20.24 20.6577 20.3646 20.2229 20.6013C19.7882 20.838 19.4221 21.1789 19.1591 21.5921C18.8961 22.0052 18.7449 22.477 18.7195 22.963C18.6942 23.4491 18.7957 23.9334 19.0144 24.3706C19.112 24.5686 19.235 24.7538 19.3804 24.9214C19.6252 25.2151 19.9254 25.4601 20.2646 25.6431C20.4439 25.7342 20.6327 25.8063 20.8278 25.8579C21.0976 25.94 21.3787 25.9809 21.6613 25.9791C22.0822 25.9792 22.4982 25.8907 22.8811 25.7196C23.264 25.5485 23.6047 25.2988 23.8802 24.9875C24.3361 24.472 24.5861 23.8127 24.5842 23.1311C24.5842 22.3685 24.2745 21.6371 23.7231 21.0978C23.1718 20.5585 22.4241 20.2556 21.6444 20.2556V20.2391Z" fill="#0B3226"/>
<path d="M26.3864 26.3702C26.1306 26.3712 25.8755 26.3435 25.6261 26.2876L25.3896 26.227C24.8293 26.0624 24.3201 25.7632 23.9084 25.3566C23.8787 25.3311 23.8549 25.2998 23.8384 25.2647C23.8219 25.2295 23.8131 25.1914 23.8127 25.1528C23.8162 25.1038 23.8327 25.0566 23.8607 25.0158C23.8887 24.975 23.9271 24.9421 23.9721 24.9204C24.0171 24.8987 24.0671 24.8888 24.1172 24.8919C24.1673 24.895 24.2157 24.9109 24.2576 24.938L24.2914 24.9655C24.6379 25.3134 25.0705 25.5677 25.5473 25.7037C25.6113 25.726 25.6773 25.7426 25.7444 25.7532C25.9547 25.8021 26.1702 25.8262 26.3864 25.8248C26.8727 25.8285 27.3522 25.713 27.7811 25.4888C28.2101 25.2646 28.5747 24.9388 28.8419 24.5413C28.9546 24.3676 29.049 24.183 29.1234 23.9905C29.371 23.3704 29.3901 22.6853 29.1773 22.053C28.9646 21.4207 28.5333 20.8806 27.9577 20.5255C27.5181 20.2519 27.0118 20.0979 26.4911 20.0795C25.9703 20.0611 25.454 20.1789 24.9954 20.4209C24.6759 20.588 24.3913 20.8122 24.1562 21.0819C24.1333 21.1094 24.1051 21.1322 24.0731 21.1491C24.0412 21.1659 24.0062 21.1764 23.9701 21.18C23.934 21.1836 23.8976 21.1802 23.8628 21.1699C23.8281 21.1597 23.7957 21.1429 23.7676 21.1205C23.7105 21.0742 23.6742 21.0078 23.6669 20.9356C23.6595 20.8634 23.6815 20.7912 23.7282 20.7348C24.0097 20.4124 24.3495 20.1435 24.7307 19.9416C25.1201 19.7353 25.5465 19.6044 25.9866 19.556C26.1197 19.5476 26.2533 19.5476 26.3864 19.556C27.0862 19.5559 27.7699 19.7617 28.3485 20.1469C28.927 20.532 29.3737 21.0786 29.6303 21.7154C29.7922 22.1151 29.8744 22.5414 29.8725 22.9714C29.8731 23.3953 29.7929 23.8156 29.6359 24.2108C29.5475 24.4297 29.4381 24.64 29.3093 24.8388C28.99 25.311 28.5558 25.6982 28.0455 25.9655C27.5353 26.2328 26.9652 26.3719 26.3864 26.3702Z" fill="#0B3226"/>
<path d="M30.8017 25.4337C30.1356 25.4291 29.4848 25.238 28.9263 24.8829C28.8954 24.8638 28.8688 24.839 28.8478 24.8098C28.8269 24.7806 28.812 24.7476 28.8042 24.7128C28.7963 24.678 28.7956 24.642 28.8021 24.6069C28.8085 24.5718 28.822 24.5383 28.8418 24.5083C28.8821 24.4485 28.9447 24.4065 29.0162 24.391C29.0876 24.3756 29.1625 24.388 29.2248 24.4257C29.6007 24.6572 30.0255 24.8022 30.467 24.8497C30.9086 24.8972 31.3554 24.8461 31.7738 24.7001C32.1922 24.5541 32.5713 24.3171 32.8824 24.0069C33.1935 23.6968 33.4286 23.3215 33.5699 22.9096C33.7111 22.4976 33.7549 22.0597 33.6979 21.6287C33.6409 21.1978 33.4847 20.7851 33.2409 20.4219C32.9971 20.0587 32.6722 19.7543 32.2906 19.5318C31.909 19.3093 31.4808 19.1744 31.0382 19.1373C30.5114 19.0988 29.9837 19.1985 29.5095 19.426C29.0353 19.6536 28.6318 20.0008 28.3406 20.4319C28.3206 20.4615 28.2949 20.4871 28.2648 20.507C28.2347 20.5269 28.201 20.5409 28.1654 20.548C28.1299 20.5552 28.0932 20.5554 28.0575 20.5487C28.0219 20.542 27.9879 20.5285 27.9576 20.509C27.9273 20.4895 27.9012 20.4643 27.8808 20.4349C27.8604 20.4055 27.8462 20.3725 27.8389 20.3377C27.8315 20.3029 27.8313 20.267 27.8381 20.2322C27.845 20.1973 27.8588 20.1641 27.8788 20.1344C28.2005 19.6515 28.6419 19.2561 29.1619 18.9849C29.682 18.7138 30.2637 18.5759 30.8529 18.5839C31.4421 18.592 32.0197 18.7457 32.5318 19.0309C33.0439 19.3161 33.4739 19.7234 33.7817 20.2149C34.0895 20.7064 34.2651 21.2662 34.2922 21.842C34.3193 22.4177 34.197 22.9909 33.9366 23.508C33.6763 24.0251 33.2863 24.4693 32.8032 24.7993C32.32 25.1292 31.7593 25.3342 31.1733 25.3952C31.0494 25.4227 30.9255 25.4337 30.8017 25.4337Z" fill="#0B3226"/>
<path d="M20.2928 20.5365C20.245 20.5364 20.1981 20.5242 20.1567 20.501C20.1152 20.4778 20.0806 20.4445 20.0563 20.4043C19.7369 19.8678 19.5715 19.2569 19.5776 18.6361C19.5742 18.1709 19.6702 17.7101 19.8593 17.2833C20.0484 16.8565 20.3265 16.4729 20.6757 16.1572C21.2538 15.6123 22.0064 15.2792 22.8064 15.2142C23.6064 15.1493 24.4049 15.3564 25.0669 15.8006C25.7289 16.2448 26.2138 16.8988 26.4399 17.6523C26.6659 18.4058 26.6192 19.2124 26.3075 19.9361C26.2935 19.969 26.2729 19.9989 26.2471 20.024C26.2212 20.0492 26.1905 20.0691 26.1568 20.0827C26.1231 20.0962 26.0869 20.1032 26.0505 20.1031C26.014 20.1029 25.9779 20.0958 25.9443 20.0821C25.9106 20.0683 25.8801 20.0482 25.8544 20.0229C25.8286 19.9977 25.8083 19.9676 25.7944 19.9347C25.7806 19.9017 25.7735 19.8663 25.7736 19.8307C25.7737 19.795 25.781 19.7597 25.795 19.7268C25.9782 19.2908 26.0487 18.8174 26.0004 18.3485C25.9521 17.8795 25.7865 17.4294 25.5182 17.0379C25.2499 16.6465 24.8871 16.3256 24.462 16.1038C24.0368 15.882 23.5624 15.766 23.0805 15.766C22.3311 15.7659 21.6099 16.0457 21.0643 16.5483C20.7714 16.8151 20.5382 17.1383 20.3792 17.4976C20.2203 17.857 20.1391 18.2446 20.1407 18.6361C20.1406 19.1602 20.2866 19.6744 20.5631 20.1234C20.5824 20.154 20.5952 20.1881 20.6009 20.2237C20.6065 20.2592 20.6048 20.2955 20.5959 20.3304C20.5869 20.3653 20.571 20.3981 20.5489 20.4269C20.5268 20.4557 20.4991 20.4798 20.4674 20.498C20.4147 20.5283 20.3537 20.5418 20.2928 20.5365Z" fill="#0B3226"/>
<path d="M31.0607 19.1594C30.9895 19.1594 30.9209 19.1325 30.8695 19.0843C30.818 19.036 30.7877 18.9701 30.7848 18.9005C30.7542 18.1595 30.4316 17.4589 29.8847 16.9455C29.3377 16.432 28.6087 16.1456 27.8506 16.1462C27.0922 16.1422 26.3624 16.4289 25.8176 16.9449C25.7913 16.9695 25.7603 16.9888 25.7265 17.0017C25.6926 17.0146 25.6564 17.0208 25.6201 17.0201C25.5467 17.0185 25.4769 16.9885 25.4261 16.9366C25.3754 16.8848 25.3477 16.8153 25.3493 16.7435C25.3509 16.6717 25.3816 16.6035 25.4346 16.5538C25.9175 16.0984 26.5245 15.789 27.1828 15.6626C27.841 15.5363 28.5225 15.5983 29.1456 15.8414C29.7687 16.0845 30.3068 16.4983 30.6954 17.033C31.0841 17.5678 31.3067 18.2009 31.3367 18.8564C31.3384 18.9282 31.3118 18.9979 31.2626 19.0512C31.2134 19.1044 31.1452 19.1373 31.072 19.1429L31.0607 19.1594Z" fill="#0B3226"/>
<path d="M23.2044 15.7716C23.1368 15.7706 23.072 15.7453 23.0221 15.7006C22.9723 15.656 22.941 15.595 22.9341 15.5292C22.568 12.1799 21.0475 8.96838 18.271 5.70726C18.2463 5.68032 18.2274 5.6488 18.2154 5.61457C18.2034 5.58035 18.1986 5.54411 18.2012 5.50802C18.2038 5.47193 18.2138 5.43673 18.2306 5.40449C18.2474 5.37226 18.2706 5.34365 18.299 5.32038C18.3273 5.29711 18.3601 5.27965 18.3955 5.26903C18.4308 5.25841 18.468 5.25485 18.5048 5.25857C18.5416 5.26228 18.5772 5.2732 18.6096 5.29066C18.642 5.30812 18.6705 5.33177 18.6934 5.36021C21.5431 8.70396 23.1087 12.0147 23.4804 15.4686C23.4851 15.5041 23.4826 15.5401 23.4729 15.5747C23.4632 15.6092 23.4467 15.6415 23.4241 15.6697C23.4016 15.6979 23.3736 15.7214 23.3416 15.7389C23.3097 15.7564 23.2746 15.7675 23.2382 15.7716H23.2044Z" fill="#0B3226"/>
<path d="M27.7774 13.2651H27.7267C26.0372 12.9677 24.7588 12.2736 24.2914 11.3701C24.1605 11.1037 24.0926 10.8119 24.0926 10.5163C24.0926 10.2207 24.1605 9.92891 24.2914 9.66246C24.0875 9.36695 23.9521 9.0314 23.8947 8.67932C23.8373 8.32725 23.8593 7.96715 23.9591 7.62426C24.2463 6.74288 25.2093 6.03226 26.8989 5.38224C26.9449 5.36598 26.9944 5.3615 27.0427 5.36921C27.091 5.37692 27.1365 5.39658 27.1748 5.42631C27.2113 5.45843 27.2392 5.49887 27.2559 5.54403C27.2726 5.58919 27.2776 5.63769 27.2706 5.68522L27.1636 6.23608C27.5877 5.97731 28.0681 5.81956 28.566 5.77555C29.0639 5.73154 29.5654 5.80249 30.0301 5.98268C30.0675 5.99619 30.1015 6.01746 30.1297 6.04504C30.1579 6.07262 30.1796 6.10585 30.1935 6.14243C30.21 6.1769 30.2186 6.21452 30.2186 6.25261C30.2186 6.29069 30.21 6.32831 30.1935 6.36278L29.5571 7.5196C30.139 7.41096 30.7397 7.45013 31.3017 7.63338C31.8637 7.81662 32.3683 8.13781 32.7672 8.56624C32.8051 8.60396 32.831 8.65154 32.842 8.70331C32.853 8.75508 32.8485 8.80885 32.8291 8.8582C32.4124 9.82772 31.4944 10.4337 30.0132 10.6981C30.333 11.0579 30.6106 11.4514 30.8411 11.8714C30.8731 11.933 30.8792 12.0043 30.8582 12.0701C30.8371 12.136 30.7906 12.1912 30.7285 12.224C30.2885 12.4731 29.7936 12.6147 29.2857 12.6368C28.7778 12.6588 28.272 12.5607 27.8112 12.3507L28.0365 12.9016C28.0555 12.9468 28.0619 12.9961 28.0549 13.0445C28.048 13.0929 28.028 13.1386 27.9971 13.177C27.9695 13.2067 27.9354 13.2301 27.8974 13.2453C27.8594 13.2606 27.8184 13.2673 27.7774 13.2651ZM26.6511 6.07082C25.3839 6.62169 24.6912 7.17255 24.4659 7.79503C24.3912 8.08699 24.3848 8.3917 24.4472 8.68643C24.5096 8.98116 24.6392 9.2583 24.8264 9.4972C24.8501 9.5374 24.8626 9.583 24.8626 9.62941C24.8626 9.67583 24.8501 9.72142 24.8264 9.76162C24.7056 9.96632 24.6378 10.1968 24.6289 10.433C24.6201 10.6692 24.6705 10.904 24.7757 11.1167C25.1136 11.7778 26.0428 12.3231 27.31 12.6261L27.0059 11.8714C26.985 11.8181 26.9816 11.7598 26.9961 11.7045C27.0106 11.6492 27.0423 11.5997 27.0868 11.5628C27.1314 11.5259 27.1865 11.5035 27.2446 11.4985C27.3028 11.4936 27.361 11.5065 27.4114 11.5354C27.8078 11.831 28.2774 12.0184 28.7721 12.0785C29.2668 12.1385 29.769 12.0689 30.2272 11.8769C29.9723 11.4431 29.6661 11.04 29.3149 10.6761C29.2807 10.639 29.2574 10.5935 29.2476 10.5445C29.2378 10.4955 29.2417 10.4448 29.2591 10.3978C29.2764 10.3509 29.3065 10.3094 29.3461 10.2779C29.3857 10.2463 29.4333 10.2259 29.4839 10.2188C30.9481 10.0426 31.8323 9.59085 32.2547 8.7976C31.8409 8.41418 31.3251 8.15245 30.7664 8.04236C30.2077 7.93228 29.6285 7.97829 29.0953 8.17513C29.0425 8.19097 28.986 8.19094 28.9332 8.17506C28.8804 8.15918 28.8337 8.12817 28.7992 8.08605C28.7646 8.04392 28.7437 7.99262 28.7393 7.93877C28.7348 7.88493 28.747 7.83101 28.7743 7.78401L29.5458 6.40685C29.0936 6.29761 28.6207 6.29981 28.1696 6.41326C27.7184 6.5267 27.3031 6.74784 26.9608 7.05687C26.917 7.09156 26.8633 7.11228 26.807 7.11624C26.7508 7.12019 26.6947 7.10719 26.6462 7.07898C26.5977 7.05077 26.5592 7.00872 26.5359 6.95847C26.5127 6.90823 26.5057 6.85221 26.5159 6.79796L26.6511 6.07082Z" fill="#0B3226"/>
<path d="M21.8866 11.0121C21.8175 11.0123 21.7511 10.9867 21.7007 10.9405C21.6495 10.8899 21.6207 10.8216 21.6207 10.7504C21.6207 10.6792 21.6495 10.6109 21.7007 10.5604C22.0608 10.1709 22.5032 9.86273 22.9972 9.65727C23.4913 9.4518 24.0251 9.35394 24.5617 9.37049C25.857 8.9298 27.248 8.81962 29.8443 8.66538C29.8808 8.66155 29.9178 8.66522 29.9529 8.67615C29.9879 8.68709 30.0203 8.70505 30.0478 8.7289C30.0754 8.75274 30.0976 8.78194 30.1129 8.81463C30.1283 8.84733 30.1365 8.8828 30.1371 8.91878C30.1394 8.95468 30.1343 8.99067 30.1222 9.02463C30.11 9.05858 30.0911 9.08982 30.0664 9.11651C30.0417 9.14319 30.0119 9.16479 29.9786 9.18003C29.9453 9.19526 29.9092 9.20383 29.8724 9.20523C27.3043 9.33744 25.9302 9.46414 24.7025 9.89932H24.6123C24.1462 9.87667 23.6807 9.95532 23.2493 10.1296C22.8179 10.3039 22.4314 10.5696 22.1175 10.9074C22.0898 10.941 22.0546 10.968 22.0145 10.9861C21.9745 11.0043 21.9307 11.0131 21.8866 11.0121Z" fill="#0B3226"/>
<path d="M26.6961 11.1057C26.6578 11.1067 26.6197 11.0992 26.5846 11.084C26.5496 11.0687 26.5184 11.0461 26.4934 11.0176L25.2093 9.60739C25.1737 9.56142 25.1544 9.50532 25.1544 9.44763C25.1544 9.38995 25.1737 9.33385 25.2093 9.28788L26.2456 7.63529C26.285 7.57461 26.3472 7.53142 26.4187 7.51495C26.4903 7.49848 26.5656 7.51004 26.6285 7.54715C26.6902 7.5847 26.7342 7.6445 26.7511 7.71359C26.768 7.78268 26.7563 7.85549 26.7186 7.91623L25.7725 9.39806L26.8989 10.654C26.9351 10.693 26.959 10.7414 26.9674 10.7935C26.9759 10.8455 26.9686 10.8988 26.9464 10.9469C26.9243 10.9949 26.8882 11.0355 26.8428 11.0638C26.7973 11.092 26.7443 11.1066 26.6905 11.1057H26.6961Z" fill="#0B3226"/>
<path d="M28.3406 10.3621C28.3022 10.363 28.2641 10.3556 28.2291 10.3403C28.194 10.3251 28.1628 10.3024 28.1378 10.2739L27.2818 9.33747C27.2453 9.29189 27.2254 9.23564 27.2254 9.17772C27.2254 9.1198 27.2453 9.06355 27.2818 9.01797L27.9801 7.91624C27.9986 7.88505 28.0234 7.85788 28.053 7.8364C28.0825 7.81492 28.1163 7.79958 28.1522 7.79133C28.188 7.78308 28.2252 7.78208 28.2615 7.7884C28.2978 7.79473 28.3324 7.80824 28.3631 7.8281C28.4247 7.86565 28.4688 7.92545 28.4856 7.99454C28.5025 8.06363 28.4909 8.13644 28.4532 8.19718L27.8337 9.11713L28.5489 9.89936C28.5852 9.9383 28.6091 9.98678 28.6175 10.0388C28.626 10.0908 28.6187 10.1442 28.5965 10.1922C28.5744 10.2402 28.5383 10.2809 28.4928 10.3091C28.4474 10.3373 28.3944 10.3519 28.3406 10.3511V10.3621Z" fill="#0B3226"/>
</svg>
