<svg width="48" height="46" viewBox="0 0 48 46" fill="none" xmlns="http://www.w3.org/2000/svg">
<rect width="47.0281" height="46" rx="23" fill="white"/>
<path d="M35.6447 20.8427L35.6468 20.8409C33.618 19.2062 33.5523 17.9985 33.4528 16.171L33.4344 15.8493C33.2879 13.3071 31.9012 12.1632 30.6573 12.1632C30.6401 12.1632 30.6246 12.1632 30.6082 12.1638C30.4225 12.1676 30.0844 12.1664 29.7138 12.1632C29.7138 12.1609 29.715 12.1589 29.715 12.1565V10.3113C29.715 9.97647 29.4373 9.70484 29.095 9.70484C28.7527 9.70484 28.475 9.97647 28.475 10.3113V12.1565C28.475 12.1589 28.4762 12.1609 28.4762 12.1632C28.1056 12.1664 27.7675 12.1676 27.5818 12.1638C27.5654 12.1632 27.5499 12.1632 27.5327 12.1632C26.2888 12.1632 24.9021 13.3071 24.7556 15.8493L24.7372 16.171C24.6988 16.8706 24.6651 17.4788 24.5249 18.0556C22.9828 17.0494 21.1473 16.4462 19.1733 16.3882V16.3766V13.9505C19.1733 13.6157 18.8959 13.3441 18.5533 13.3441C18.2104 13.3441 17.9333 13.6157 17.9333 13.9505V16.4229C12.7266 16.8846 8.63184 21.1734 8.63184 26.3845C8.63184 31.9028 13.2218 36.3924 18.8634 36.3924C20.7817 36.3924 22.5718 35.8643 24.1088 34.9615C25.5512 35.8631 27.2594 36.3924 29.095 36.3924C34.224 36.3924 38.3964 32.3112 38.3964 27.2943C38.3964 24.7748 37.3428 22.492 35.6447 20.8427ZM18.8634 35.1795C13.9058 35.1795 9.87213 31.234 9.87213 26.3845C9.87213 21.8424 13.4111 18.0937 17.9333 17.6372V18.1962C17.9333 18.531 18.2107 18.8026 18.5533 18.8026C18.8959 18.8026 19.1733 18.531 19.1733 18.1962V17.6052C23.9868 17.7671 27.8547 21.6378 27.8547 26.3845C27.8547 31.234 23.821 35.1795 18.8634 35.1795ZM29.095 35.1795C27.6937 35.1795 26.3748 34.8264 25.2256 34.2086C25.2247 34.2092 25.2241 34.2092 25.2235 34.2103C27.5782 32.3747 29.095 29.5518 29.095 26.3845C29.095 23.3805 27.7282 20.6884 25.5786 18.8519C25.8774 17.9971 25.9263 17.1461 25.9763 16.2357L25.9938 15.9183C26.0897 14.2606 26.8555 13.3767 27.5333 13.3767C27.5395 13.3767 27.5455 13.3767 27.5517 13.3767C27.8556 13.3837 28.5003 13.3784 29.0956 13.3706C29.6909 13.3784 30.3353 13.3837 30.6395 13.3767C30.6457 13.3767 30.6523 13.3767 30.6579 13.3767C31.3357 13.3767 32.1015 14.2609 32.1974 15.9183L32.2149 16.2357C32.3197 18.1502 32.4093 19.8033 34.8589 21.7775C36.2864 23.2015 37.1573 25.1477 37.1573 27.2943C37.1561 31.6422 33.54 35.1795 29.095 35.1795ZM21.6223 19.601C21.5994 19.6676 21.0386 21.229 18.5533 21.229C16.0679 21.229 15.5075 19.6676 15.4842 19.601C15.3765 19.283 15.5521 18.9398 15.8765 18.8338C16.1968 18.7284 16.5439 18.8952 16.6567 19.2047C16.6796 19.2592 17.0255 20.0158 18.5533 20.0158C20.1046 20.0158 20.4371 19.2359 20.4505 19.203C20.574 18.8976 20.9258 18.7354 21.2425 18.8478C21.5583 18.9602 21.7283 19.2894 21.6223 19.601ZM23.957 14.2708C24.9652 13.2859 25.6137 12.0846 25.9218 10.819C26.02 10.4146 26.0843 10.005 26.1111 9.591C25.6884 9.61779 25.2694 9.6798 24.8562 9.77617C23.5621 10.0775 22.334 10.7125 21.327 11.6974C20.3201 12.6823 19.6709 13.8836 19.3626 15.1491C19.2643 15.5538 19.2004 15.9635 19.1736 16.3769C19.5962 16.3507 20.0153 16.2887 20.429 16.192C21.7229 15.8907 22.951 15.2557 23.957 14.2708ZM22.2036 12.5551C22.8843 11.8893 23.6874 11.4179 24.5404 11.1271C24.2431 11.9618 23.7612 12.7472 23.0805 13.4131C22.3998 14.0792 21.5967 14.5503 20.7428 14.8411C21.041 14.0061 21.5232 13.2212 22.2036 12.5551Z" fill="#0B3226"/>
<path d="M27.9751 12.1661C27.8143 12.1664 27.6777 12.1658 27.5818 12.1638C27.5654 12.1632 27.5499 12.1632 27.5327 12.1632H27.5327C26.2888 12.1632 24.9021 13.3071 24.7556 15.8493L24.7372 16.171L27.9751 12.1661ZM27.9751 12.1661C27.9758 12.2048 27.9809 12.2362 27.985 12.2568C27.9872 12.2679 27.9894 12.2768 27.9908 12.2823L27.9913 12.284M27.9751 12.1661L28.475 12.0254V12.1565C28.475 12.1577 28.4753 12.1588 28.4756 12.1599C28.4759 12.161 28.4762 12.1621 28.4762 12.1632C28.2975 12.1648 28.1264 12.1658 27.9762 12.1661C27.9764 12.2067 27.9817 12.2394 27.9858 12.2601C27.9879 12.2706 27.99 12.279 27.9913 12.284M27.9913 12.284L27.9925 12.2889L27.993 12.2906L27.9932 12.2913C27.9934 12.2923 27.9924 12.2885 27.9913 12.284ZM30.215 11.6661C30.0673 11.6658 29.8975 11.6648 29.7181 11.6632L29.715 12.0256L30.6082 12.1638C30.5123 12.1658 30.3757 12.1664 30.2149 12.1661C30.215 12.163 30.215 12.1598 30.215 12.1565V11.6661ZM30.215 11.6661C30.3716 11.6664 30.5032 11.6658 30.5948 11.664L30.215 11.6661ZM25.5458 10.1532C25.3527 10.1819 25.1606 10.2186 24.9698 10.2631L24.9696 10.2631C23.7587 10.5451 22.614 11.1379 21.6767 12.0548C20.7395 12.9715 20.1356 14.0887 19.8484 15.2675C19.8042 15.4494 19.7676 15.6319 19.7387 15.8152C19.9318 15.7865 20.1241 15.7498 20.3153 15.7051L20.3156 15.705C21.5262 15.4231 22.6708 14.8302 23.6073 13.9135L23.6076 13.9131C24.5457 12.9967 25.149 11.8797 25.4359 10.701L25.5458 10.1532ZM25.5458 10.1532C25.5168 10.3364 25.4801 10.519 25.436 10.7008L25.5458 10.1532ZM33.3596 18.7577C33.6781 19.5862 34.2563 20.3546 35.2913 21.1964L35.2963 21.2013C36.9032 22.762 37.8964 24.9177 37.8964 27.2943C37.8964 32.0247 33.9584 35.8924 29.095 35.8924C27.3569 35.8924 25.7401 35.3915 24.3739 34.5375L24.1169 34.3768L23.8556 34.5303C22.3917 35.3902 20.6886 35.8924 18.8634 35.8924C13.4875 35.8924 9.13184 31.6162 9.13184 26.3845C9.13184 21.4444 13.0166 17.3609 17.9774 16.9209L18.4333 16.8805V16.4229V13.9505C18.4333 13.9019 18.4764 13.8441 18.5533 13.8441C18.63 13.8441 18.6733 13.9021 18.6733 13.9505V16.3653L18.6379 16.911L19.0573 16.885L19.1586 16.888C21.039 16.9432 22.7854 17.5176 24.2517 18.4743L24.8438 18.8607L25.0108 18.1737C25.1622 17.5507 25.1978 16.9018 25.2352 16.2204L25.2363 16.1997L25.2364 16.1984L25.2548 15.8781C25.3917 13.5014 26.6427 12.6632 27.5327 12.6632C27.5513 12.6632 27.5579 12.6633 27.564 12.6635L27.564 12.6635L27.5716 12.6637C27.7658 12.6677 28.1112 12.6664 28.4805 12.6632L28.9762 12.6589V12.1632C28.9762 12.151 28.9757 12.1394 28.975 12.1285V10.3113C28.975 10.263 29.0184 10.2048 29.095 10.2048C29.1716 10.2048 29.215 10.263 29.215 10.3113V12.1285C29.2143 12.1394 29.2138 12.151 29.2138 12.1632V12.6589L29.7095 12.6632C30.0788 12.6664 30.4242 12.6677 30.6184 12.6637V12.6638L30.626 12.6635C30.6321 12.6633 30.6387 12.6632 30.6573 12.6632C31.5473 12.6632 32.7983 13.5014 32.9352 15.878C32.9352 15.878 32.9352 15.878 32.9352 15.8781L32.9536 16.1982L32.9537 16.1997L32.9558 16.2389C33.0037 17.1216 33.0487 17.949 33.3596 18.7577ZM30.2138 12.1632C30.2138 12.1642 30.2138 12.1651 30.2138 12.1661C30.0636 12.1658 29.8925 12.1648 29.7138 12.1632H30.2138ZM18.4333 17.6372V17.0842L17.8831 17.1397C13.1174 17.6208 9.37213 21.574 9.37213 26.3845C9.37213 31.5205 13.6401 35.6795 18.8634 35.6795C24.0867 35.6795 28.3547 31.5205 28.3547 26.3845C28.3547 21.3564 24.2611 17.276 19.1901 17.1055L18.6733 17.0881V17.6052V18.1962C18.6733 18.2447 18.63 18.3026 18.5533 18.3026C18.4765 18.3026 18.4333 18.2447 18.4333 18.1962V17.6372ZM28.595 26.3845C28.595 29.381 27.1637 32.0572 24.9303 33.8049C24.9047 33.8235 24.8771 33.8473 24.8502 33.8776C24.8169 33.915 24.794 33.9521 24.7783 33.9827L25.1721 34.3081L24.9889 34.649C26.2089 35.3048 27.6088 35.6795 29.095 35.6795C33.8058 35.6795 37.6561 31.9287 37.6573 27.2944V27.2943C37.6573 25.009 36.7293 22.937 35.212 21.4235L35.1933 21.4048L35.1727 21.3882C34.0022 20.4449 33.4291 19.6069 33.125 18.8066C32.8152 17.9912 32.7672 17.1766 32.7142 16.2084L32.7142 16.208L32.6966 15.8907L32.6965 15.8895C32.6447 14.9935 32.41 14.2659 32.0607 13.7468C31.7177 13.2371 31.2215 12.8767 30.6579 12.8767H30.6579H30.6579H30.6578H30.6578H30.6578H30.6577H30.6577H30.6577H30.6576H30.6576H30.6576H30.6575H30.6575H30.6575H30.6574H30.6574H30.6574H30.6573H30.6573H30.6573H30.6572H30.6572H30.6572H30.6571H30.6571H30.6571H30.657H30.657H30.657H30.6569H30.6569H30.6569H30.6568H30.6568H30.6568H30.6567H30.6567H30.6567H30.6566H30.6566H30.6566H30.6565H30.6565H30.6565H30.6564H30.6564H30.6564H30.6563H30.6563H30.6563H30.6562H30.6562H30.6562H30.6561H30.6561H30.6561H30.656H30.656H30.656H30.6559H30.6559H30.6558H30.6558H30.6558H30.6557H30.6557H30.6557H30.6556H30.6556H30.6556H30.6555H30.6555H30.6555H30.6554H30.6554H30.6554H30.6553H30.6553H30.6553H30.6552H30.6552H30.6552H30.6551H30.6551H30.6551H30.655H30.655H30.655H30.6549H30.6549H30.6548H30.6548H30.6548H30.6547H30.6547H30.6547H30.6546H30.6546H30.6546H30.6545H30.6545H30.6545H30.6544H30.6544H30.6544H30.6543H30.6543H30.6543H30.6542H30.6542H30.6541H30.6541H30.6541H30.654H30.654H30.654H30.6539H30.6539H30.6539H30.6538H30.6538H30.6538H30.6537H30.6537H30.6537H30.6536H30.6536H30.6536H30.6535H30.6535H30.6534H30.6534H30.6534H30.6533H30.6533H30.6533H30.6532H30.6532H30.6532H30.6531H30.6531H30.6531H30.653H30.653H30.6529H30.6529H30.6529H30.6528H30.6528H30.6528H30.6527H30.6527H30.6527H30.6526H30.6526H30.6526H30.6525H30.6525H30.6525H30.6524H30.6524H30.6523H30.6523H30.6523H30.6522H30.6522H30.6522H30.6521H30.6521H30.6521H30.652H30.652H30.6519H30.6519H30.6519H30.6518H30.6518H30.6518H30.6517H30.6517H30.6517H30.6516H30.6516H30.6516H30.6515H30.6515H30.6514H30.6514H30.6514H30.6513H30.6513H30.6513H30.6512H30.6512H30.6512H30.6511H30.6511H30.651H30.651H30.651H30.6509H30.6509H30.6509H30.6508H30.6508H30.6508H30.6507H30.6507H30.6507H30.6506H30.6506H30.6505H30.6505H30.6505H30.6504H30.6504H30.6504H30.6503H30.6503H30.6503H30.6502H30.6502H30.6501H30.6501H30.6501H30.65H30.65H30.65H30.6499H30.6499H30.6499H30.6498H30.6498H30.6497H30.6497H30.6497H30.6496H30.6496H30.6496H30.6495H30.6495H30.6495H30.6494H30.6494H30.6493H30.6493H30.6493H30.6492H30.6492H30.6492H30.6491H30.6491H30.649H30.649H30.649H30.6489H30.6489H30.6489H30.6488H30.6488H30.6488H30.6487H30.6487H30.6486H30.6486H30.6486H30.6485H30.6485H30.6485H30.6484H30.6484H30.6484H30.6483H30.6483H30.6482H30.6482H30.6482H30.6481H30.6481H30.6481H30.648H30.648H30.6479H30.6479H30.6479H30.6478H30.6478H30.6478H30.6477H30.6477H30.6477H30.6476H30.6476H30.6475H30.6475H30.6475H30.6474H30.6474H30.6474H30.6473H30.6473H30.6472H30.6472H30.6472H30.6471H30.6471H30.6471H30.647H30.647H30.647H30.6469H30.6469H30.6468H30.6468H30.6468H30.6467H30.6467H30.6467H30.6466H30.6466H30.6465H30.6465H30.6465H30.6464H30.6464H30.6464H30.6463H30.6463H30.6462H30.6462H30.6462H30.6461H30.6461H30.6461H30.646H30.646H30.646H30.6459H30.6459H30.6458H30.6458H30.6458H30.6457H30.6457H30.6457H30.6456H30.6456H30.6455H30.6455H30.6455H30.6454H30.6454H30.6454H30.6453H30.6453H30.6453H30.6452H30.6452H30.6451H30.6451H30.6451H30.645H30.645H30.645H30.6449H30.6449H30.6448H30.6448H30.6448H30.6447H30.6447H30.6447H30.6446H30.6446H30.6445H30.6445H30.6445H30.6444H30.6444H30.6444H30.6443H30.6443H30.6442H30.6442H30.6442H30.6441H30.6441H30.6441H30.644H30.644H30.644H30.6439H30.6439H30.6438H30.6438H30.6438H30.6437H30.6437H30.6437H30.6436H30.6436H30.6435H30.6435H30.6435H30.6434H30.6434H30.6434H30.6433H30.6433H30.6432H30.6432H30.6432H30.6431H30.6431H30.6431H30.643H30.643H30.643H30.6429H30.6429H30.6428H30.6428H30.6428H30.6427H30.6427H30.6427H30.6426H30.6426H30.6425H30.6425H30.6425H30.6424H30.6424H30.6424H30.6423H30.6423H30.6423H30.6422H30.6422H30.6421H30.6421H30.6421H30.642H30.642H30.642H30.6419H30.6419H30.6418H30.6418H30.6418H30.6417H30.6417H30.6417H30.6416H30.6416H30.6415H30.6415H30.6415H30.6414H30.6414H30.6414H30.6413H30.6413H30.6413H30.6412H30.6412H30.6411H30.6411H30.6411H30.641H30.641H30.641H30.6409H30.6409H30.6408H30.6408H30.6408H30.6407H30.6407H30.6407H30.6406H30.6406H30.6406H30.6405H30.6405H30.6404H30.6404H30.6404H30.6403H30.6403H30.6403H30.6402H30.6402H30.6401H30.6401H30.6401H30.64H30.64H30.64H30.6399H30.6399H30.6399H30.6398H30.6398H30.6397H30.6397H30.6397H30.6396H30.6396H30.6396H30.6395H30.6395V12.8766L30.628 12.8768C30.3347 12.8836 29.7 12.8785 29.1022 12.8706L29.1022 12.8704L29.089 12.8706C28.4911 12.8785 27.8562 12.8836 27.5632 12.8768L27.5632 12.8767H27.5517H27.5517H27.5516H27.5516H27.5516H27.5515H27.5515H27.5515H27.5514H27.5514H27.5513H27.5513H27.5513H27.5512H27.5512H27.5512H27.5511H27.5511H27.551H27.551H27.551H27.5509H27.5509H27.5509H27.5508H27.5508H27.5508H27.5507H27.5507H27.5506H27.5506H27.5506H27.5505H27.5505H27.5505H27.5504H27.5504H27.5504H27.5503H27.5503H27.5502H27.5502H27.5502H27.5501H27.5501H27.5501H27.55H27.55H27.55H27.5499H27.5499H27.5498H27.5498H27.5498H27.5497H27.5497H27.5497H27.5496H27.5496H27.5496H27.5495H27.5495H27.5494H27.5494H27.5494H27.5493H27.5493H27.5493H27.5492H27.5492H27.5492H27.5491H27.5491H27.549H27.549H27.549H27.5489H27.5489H27.5489H27.5488H27.5488H27.5488H27.5487H27.5487H27.5487H27.5486H27.5486H27.5485H27.5485H27.5485H27.5484H27.5484H27.5484H27.5483H27.5483H27.5483H27.5482H27.5482H27.5481H27.5481H27.5481H27.548H27.548H27.548H27.5479H27.5479H27.5479H27.5478H27.5478H27.5477H27.5477H27.5477H27.5476H27.5476H27.5476H27.5475H27.5475H27.5475H27.5474H27.5474H27.5474H27.5473H27.5473H27.5472H27.5472H27.5472H27.5471H27.5471H27.5471H27.547H27.547H27.547H27.5469H27.5469H27.5468H27.5468H27.5468H27.5467H27.5467H27.5467H27.5466H27.5466H27.5466H27.5465H27.5465H27.5465H27.5464H27.5464H27.5463H27.5463H27.5463H27.5462H27.5462H27.5462H27.5461H27.5461H27.5461H27.546H27.546H27.546H27.5459H27.5459H27.5458H27.5458H27.5458H27.5457H27.5457H27.5457H27.5456H27.5456H27.5456H27.5455H27.5455H27.5455H27.5454H27.5454H27.5453H27.5453H27.5453H27.5452H27.5452H27.5452H27.5451H27.5451H27.5451H27.545H27.545H27.5449H27.5449H27.5449H27.5448H27.5448H27.5448H27.5447H27.5447H27.5447H27.5446H27.5446H27.5446H27.5445H27.5445H27.5444H27.5444H27.5444H27.5443H27.5443H27.5443H27.5442H27.5442H27.5442H27.5441H27.5441H27.5441H27.544H27.544H27.5439H27.5439H27.5439H27.5438H27.5438H27.5438H27.5437H27.5437H27.5437H27.5436H27.5436H27.5436H27.5435H27.5435H27.5434H27.5434H27.5434H27.5433H27.5433H27.5433H27.5432H27.5432H27.5432H27.5431H27.5431H27.5431H27.543H27.543H27.5429H27.5429H27.5429H27.5428H27.5428H27.5428H27.5427H27.5427H27.5427H27.5426H27.5426H27.5426H27.5425H27.5425H27.5424H27.5424H27.5424H27.5423H27.5423H27.5423H27.5422H27.5422H27.5422H27.5421H27.5421H27.542H27.542H27.542H27.5419H27.5419H27.5419H27.5418H27.5418H27.5418H27.5417H27.5417H27.5417H27.5416H27.5416H27.5415H27.5415H27.5415H27.5414H27.5414H27.5414H27.5413H27.5413H27.5413H27.5412H27.5412H27.5412H27.5411H27.5411H27.541H27.541H27.541H27.5409H27.5409H27.5409H27.5408H27.5408H27.5408H27.5407H27.5407H27.5407H27.5406H27.5406H27.5405H27.5405H27.5405H27.5404H27.5404H27.5404H27.5403H27.5403H27.5403H27.5402H27.5402H27.5402H27.5401H27.5401H27.54H27.54H27.54H27.5399H27.5399H27.5399H27.5398H27.5398H27.5398H27.5397H27.5397H27.5397H27.5396H27.5396H27.5395H27.5395H27.5395H27.5394H27.5394H27.5394H27.5393H27.5393H27.5393H27.5392H27.5392H27.5392H27.5391H27.5391H27.539H27.539H27.539H27.5389H27.5389H27.5389H27.5388H27.5388H27.5388H27.5387H27.5387H27.5386H27.5386H27.5386H27.5385H27.5385H27.5385H27.5384H27.5384H27.5384H27.5383H27.5383H27.5383H27.5382H27.5382H27.5381H27.5381H27.5381H27.538H27.538H27.538H27.5379H27.5379H27.5379H27.5378H27.5378H27.5378H27.5377H27.5377H27.5376H27.5376H27.5376H27.5375H27.5375H27.5375H27.5374H27.5374H27.5374H27.5373H27.5373H27.5372H27.5372H27.5372H27.5371H27.5371H27.5371H27.537H27.537H27.537H27.5369H27.5369H27.5368H27.5368H27.5368H27.5367H27.5367H27.5367H27.5366H27.5366H27.5366H27.5365H27.5365H27.5365H27.5364H27.5364H27.5363H27.5363H27.5363H27.5362H27.5362H27.5362H27.5361H27.5361H27.5361H27.536H27.536H27.5359H27.5359H27.5359H27.5358H27.5358H27.5358H27.5357H27.5357H27.5357H27.5356H27.5356H27.5355H27.5355H27.5355H27.5354H27.5354H27.5354H27.5353H27.5353H27.5353H27.5352H27.5352H27.5351H27.5351H27.5351H27.535H27.535H27.535H27.5349H27.5349H27.5349H27.5348H27.5348H27.5347H27.5347H27.5347H27.5346H27.5346H27.5346H27.5345H27.5345H27.5345H27.5344H27.5344H27.5343H27.5343H27.5343H27.5342H27.5342H27.5342H27.5341H27.5341H27.5341H27.534H27.534H27.5339H27.5339H27.5339H27.5338H27.5338H27.5338H27.5337H27.5337H27.5337H27.5336H27.5336H27.5335H27.5335H27.5335H27.5334H27.5334H27.5334H27.5333H27.5333H27.5333C26.9698 12.8767 26.4735 13.237 26.1305 13.7467C25.7812 14.2658 25.5465 14.9933 25.4947 15.8895L25.4946 15.8907L25.477 16.208L25.477 16.2083C25.4265 17.1279 25.3785 17.9091 25.1066 18.6868L24.9937 19.0098L25.2538 19.232C27.3 20.9801 28.595 23.5366 28.595 26.3845ZM25.4987 34.6273L25.4289 34.5204L25.5307 34.6045C25.5196 34.613 25.5089 34.6206 25.4987 34.6273ZM25.4575 34.6516C25.4585 34.6511 25.4607 34.6499 25.4638 34.6482C25.4569 34.652 25.4536 34.6536 25.4572 34.6517L25.4575 34.6516ZM16.0318 19.3091L16.0328 19.3087C16.1024 19.2858 16.1686 19.3258 16.1869 19.3759L16.1911 19.3874L16.1958 19.3987C16.235 19.4917 16.3797 19.7787 16.7541 20.0405C17.1311 20.304 17.7035 20.5158 18.5533 20.5158C19.4163 20.5158 19.993 20.2974 20.3692 20.0286C20.7427 19.7618 20.8805 19.4728 20.9136 19.3915L20.914 19.3904C20.9248 19.3637 20.9473 19.3391 20.9801 19.3243C21.0122 19.3097 21.0455 19.3085 21.0749 19.3188C21.1126 19.3323 21.1343 19.3554 21.1448 19.3761C21.1545 19.3953 21.1568 19.4156 21.1494 19.4385C21.143 19.4559 21.0285 19.7592 20.6812 20.0644C20.3236 20.3786 19.6812 20.729 18.5533 20.729C17.4254 20.729 16.783 20.3786 16.4255 20.0644C16.0852 19.7654 15.9681 19.4679 15.9571 19.4384C15.9426 19.392 15.9651 19.3309 16.0318 19.3091ZM21.854 12.1977L21.8538 12.1978C21.1166 12.9195 20.5944 13.7701 20.2719 14.6729L19.9235 15.6484L20.904 15.3144C21.8236 15.0012 22.6924 14.4924 23.4302 13.7704C24.1679 13.0488 24.6899 12.1975 25.0114 11.2948L25.3588 10.3198L24.3791 10.6538C23.4603 10.9671 22.5916 11.4762 21.854 12.1977Z" stroke="black" stroke-opacity="0.04"/>
</svg>
