<svg width="48" height="46" viewBox="0 0 48 46" fill="none" xmlns="http://www.w3.org/2000/svg">
<rect width="47.0281" height="46" rx="23" fill="white"/>
<path d="M23.2282 12.8323C21.9138 10.2022 19.1825 9.52856 16.2147 9.52856C15.4614 9.52856 15.4606 10.6546 16.2147 10.6546C18.4477 10.6546 20.771 11.0371 21.9696 12.9106C15.4715 13.6029 10.4133 18.6013 10.4133 24.6486C10.4133 31.1675 16.2903 36.4714 23.514 36.4714C30.7377 36.4714 36.6147 31.1675 36.6147 24.6486C36.6147 18.1501 30.6976 12.6816 23.2282 12.8323ZM23.5107 18.0202C23.5118 18.0202 23.5129 18.0202 23.514 18.0202C24.1941 18.0202 24.0795 17.2659 24.0724 16.944C26.5311 17.3096 25.9302 19.1407 23.514 19.1407C22.2488 19.1407 21.3672 18.5502 21.3672 18.0202C21.3672 17.5763 21.9902 17.0943 22.9344 16.9478C22.9445 17.3905 22.8743 18.0169 23.5107 18.0202ZM23.514 35.3454C16.9183 35.3454 11.5525 30.5468 11.5525 24.6486C11.5525 19.0608 16.3704 14.4671 22.4854 13.9983C22.6671 14.5279 22.7965 15.128 22.8686 15.8155C21.3455 16.0154 20.228 16.9117 20.228 18.0202C20.228 21.0009 26.8003 21.0001 26.8003 18.0202C26.8003 16.8752 25.6072 15.9586 24.0071 15.8C23.9412 15.1251 23.8313 14.5103 23.6703 13.9588C30.1934 14.0347 35.4755 18.7975 35.4755 24.6486C35.4755 30.5468 30.1097 35.3454 23.514 35.3454Z" fill="#0B3226"/>
</svg>
